{
  "accessors": [
    {
      "bufferView": 2,
      "componentType": 5126,
      "count": 65532,
      "max": [
        0.6054608821868896,
        0.6054608821868896,
        0.8562185168266296
      ],
      "min": [
        -0.6054608821868896,
        -0.6054608821868896,
        0.49442678689956665
      ],
      "type": "VEC3"
    },
    {
      "bufferView": 2,
      "byteOffset": 786384,
      "componentType": 5126,
      "count": 65532,
      "max": [
        0.7071067690849304,
        0.7071067690849304,
        1.0
      ],
      "min": [
        -0.7071067690849304,
        -0.7071067690849304,
        0.5773502588272095
      ],
      "type": "VEC3"
    },
    {
      "bufferView": 3,
      "componentType": 5126,
      "count": 65532,
      "max": [
        -0.5466829538345337,
        0.7985588908195496,
        0.7071195244789124,
        1.0
      ],
      "min": [
        -1.0,
        -0.7985588908195496,
        -0.7071195244789124,
        1.0
      ],
      "type": "VEC4"
    },
    {
      "bufferView": 1,
      "componentType": 5126,
      "count": 65532,
      "max": [
        1.0,
        1.0
      ],
      "min": [
        0.0,
        0.0
      ],
      "type": "VEC2"
    },
    {
      "bufferView": 0,
      "componentType": 5125,
      "count": 388110,
      "type": "SCALAR"
    },
    {
      "bufferView": 2,
      "byteOffset": 1572768,
      "componentType": 5126,
      "count": 65532,
      "max": [
        0.6054608821868896,
        0.6054608821868896,
        0.8560619354248047
      ],
      "min": [
        -0.6054608821868896,
        -0.6054608821868896,
        -0.8562185168266296
      ],
      "type": "VEC3"
    },
    {
      "bufferView": 2,
      "byteOffset": 2359152,
      "componentType": 5126,
      "count": 65532,
      "max": [
        0.7071067690849304,
        0.7071067690849304,
        0.9998174905776978
      ],
      "min": [
        -0.7071067690849304,
        -0.7071067690849304,
        -1.0
      ],
      "type": "VEC3"
    },
    {
      "bufferView": 3,
      "byteOffset": 1048512,
      "componentType": 5126,
      "count": 65532,
      "max": [
        1.0,
        0.7985588908195496,
        0.7071195244789124,
        1.0
      ],
      "min": [
        -1.0,
        -0.7985588908195496,
        -0.7071195244789124,
        -1.0
      ],
      "type": "VEC4"
    },
    {
      "bufferView": 1,
      "byteOffset": 524256,
      "componentType": 5126,
      "count": 65532,
      "max": [
        1.0,
        1.0
      ],
      "min": [
        0.0,
        0.0
      ],
      "type": "VEC2"
    },
    {
      "bufferView": 0,
      "byteOffset": 1552440,
      "componentType": 5125,
      "count": 378720,
      "type": "SCALAR"
    },
    {
      "bufferView": 2,
      "byteOffset": 3145536,
      "componentType": 5126,
      "count": 65532,
      "max": [
        0.6054608821868896,
        0.7929884791374207,
        0.6054608821868896
      ],
      "min": [
        -0.6054608821868896,
        -0.8562185168266296,
        -0.8560619354248047
      ],
      "type": "VEC3"
    },
    {
      "bufferView": 2,
      "byteOffset": 3931920,
      "componentType": 5126,
      "count": 65532,
      "max": [
        0.7071067690849304,
        0.9261734485626221,
        0.7071067690849304
      ],
      "min": [
        -0.7071067690849304,
        -1.0,
        -0.9998174905776978
      ],
      "type": "VEC3"
    },
    {
      "bufferView": 3,
      "byteOffset": 2097024,
      "componentType": 5126,
      "count": 65532,
      "max": [
        1.0,
        0.7071068286895752,
        1.0,
        1.0
      ],
      "min": [
        -0.40566903352737427,
        -0.7985588908195496,
        -0.6898508667945862,
        1.0
      ],
      "type": "VEC4"
    },
    {
      "bufferView": 1,
      "byteOffset": 1048512,
      "componentType": 5126,
      "count": 65532,
      "max": [
        1.0,
        1.0
      ],
      "min": [
        0.0,
        0.0
      ],
      "type": "VEC2"
    },
    {
      "bufferView": 0,
      "byteOffset": 3067320,
      "componentType": 5125,
      "count": 365952,
      "type": "SCALAR"
    },
    {
      "bufferView": 2,
      "byteOffset": 4718304,
      "componentType": 5126,
      "count": 65532,
      "max": [
        0.6054608821868896,
        0.8562185168266296,
        0.6054608821868896
      ],
      "min": [
        -0.7817429900169373,
        -0.6054608821868896,
        -0.6054608821868896
      ],
      "type": "VEC3"
    },
    {
      "bufferView": 2,
      "byteOffset": 5504688,
      "componentType": 5126,
      "count": 65532,
      "max": [
        0.7071067690849304,
        1.0,
        0.7071067690849304
      ],
      "min": [
        -0.9130411744117737,
        -0.7071067690849304,
        -0.7071067690849304
      ],
      "type": "VEC3"
    },
    {
      "bufferView": 3,
      "byteOffset": 3145536,
      "componentType": 5126,
      "count": 65532,
      "max": [
        0.7071065902709961,
        0.7985588908195496,
        1.0,
        1.0
      ],
      "min": [
        -0.7071068286895752,
        -0.7985588908195496,
        -0.7071068286895752,
        -1.0
      ],
      "type": "VEC4"
    },
    {
      "bufferView": 1,
      "byteOffset": 1572768,
      "componentType": 5126,
      "count": 65532,
      "max": [
        1.0,
        1.0
      ],
      "min": [
        0.0,
        0.0
      ],
      "type": "VEC2"
    },
    {
      "bufferView": 0,
      "byteOffset": 4531128,
      "componentType": 5125,
      "count": 362940,
      "type": "SCALAR"
    },
    {
      "bufferView": 2,
      "byteOffset": 6291072,
      "componentType": 5126,
      "count": 65532,
      "max": [
        0.8562185168266296,
        0.6718639135360718,
        0.605307936668396
      ],
      "min": [
        -0.8562185168266296,
        -0.605307936668396,
        -0.605307936668396
      ],
      "type": "VEC3"
    },
    {
      "bufferView": 2,
      "byteOffset": 7077456,
      "componentType": 5126,
      "count": 65532,
      "max": [
        1.0,
        0.78468257188797,
        0.7069283723831177
      ],
      "min": [
        -1.0,
        -0.7069283723831177,
        -0.7069283723831177
      ],
      "type": "VEC3"
    },
    {
      "bufferView": 3,
      "byteOffset": 4194048,
      "componentType": 5126,
      "count": 65532,
      "max": [
        0.7071042060852051,
        0.703356146812439,
        1.0,
        1.0
      ],
      "min": [
        -0.7071042060852051,
        -0.4056690037250519,
        0.7071093320846558,
        1.0
      ],
      "type": "VEC4"
    },
    {
      "bufferView": 1,
      "byteOffset": 2097024,
      "componentType": 5126,
      "count": 65532,
      "max": [
        1.0,
        1.0
      ],
      "min": [
        0.0,
        0.0
      ],
      "type": "VEC2"
    },
    {
      "bufferView": 0,
      "byteOffset": 5982888,
      "componentType": 5125,
      "count": 374484,
      "type": "SCALAR"
    },
    {
      "bufferView": 2,
      "byteOffset": 7863840,
      "componentType": 5126,
      "count": 65532,
      "max": [
        0.8231779336929321,
        0.6054608821868896,
        0.6054608821868896
      ],
      "min": [
        0.014443937689065933,
        -0.8560619354248047,
        -0.6054608821868896
      ],
      "type": "VEC3"
    },
    {
      "bufferView": 2,
      "byteOffset": 8650224,
      "componentType": 5126,
      "count": 65532,
      "max": [
        0.9614237546920776,
        0.7071067690849304,
        0.7071067690849304
      ],
      "min": [
        0.016846492886543274,
        -0.9998174905776978,
        -0.7071067690849304
      ],
      "type": "VEC3"
    },
    {
      "bufferView": 3,
      "byteOffset": 5242560,
      "componentType": 5126,
      "count": 65532,
      "max": [
        0.7071068286895752,
        0.40567338466644287,
        1.0,
        1.0
      ],
      "min": [
        -0.7071068286895752,
        -0.7071042060852051,
        0.7071068286895752,
        1.0
      ],
      "type": "VEC4"
    },
    {
      "bufferView": 1,
      "byteOffset": 2621280,
      "componentType": 5126,
      "count": 65532,
      "max": [
        1.0,
        1.0
      ],
      "min": [
        0.0,
        0.0
      ],
      "type": "VEC2"
    },
    {
      "bufferView": 0,
      "byteOffset": 7480824,
      "componentType": 5125,
      "count": 386304,
      "type": "SCALAR"
    },
    {
      "bufferView": 2,
      "byteOffset": 9436608,
      "componentType": 5126,
      "count": 22978,
      "max": [
        0.605307936668396,
        -0.49442678689956665,
        0.605307936668396
      ],
      "min": [
        -0.6054608821868896,
        -0.8560619354248047,
        -0.6040857434272766
      ],
      "type": "VEC3"
    },
    {
      "bufferView": 2,
      "byteOffset": 9712344,
      "componentType": 5126,
      "count": 22978,
      "max": [
        0.7069283723831177,
        -0.5773502588272095,
        0.7069283723831177
      ],
      "min": [
        -0.7071067690849304,
        -0.9998174905776978,
        -0.7055025100708008
      ],
      "type": "VEC3"
    },
    {
      "bufferView": 3,
      "byteOffset": 6291072,
      "componentType": 5126,
      "count": 22978,
      "max": [
        0.40567338466644287,
        0.7985588908195496,
        1.0,
        1.0
      ],
      "min": [
        -0.5466829538345337,
        -0.7070837616920471,
        0.2518759071826935,
        1.0
      ],
      "type": "VEC4"
    },
    {
      "bufferView": 1,
      "byteOffset": 3145536,
      "componentType": 5126,
      "count": 22978,
      "max": [
        1.0,
        1.0
      ],
      "min": [
        0.0,
        0.0
      ],
      "type": "VEC2"
    },
    {
      "bufferView": 0,
      "byteOffset": 9026040,
      "componentType": 5125,
      "count": 102786,
      "type": "SCALAR"
    }
  ],
  "asset": {
    "extras": {
      "author": "Yo.Ri (https://sketchfab.com/grox777)",
      "license": "CC-BY-4.0 (http://creativecommons.org/licenses/by/4.0/)",
      "source": "https://sketchfab.com/3d-models/puddles-on-dirt-material-0b27facccf43428eaf1b15565bd48395",
      "title": "Puddles on dirt material"
    },
    "generator": "Sketchfab-12.66.0",
    "version": "2.0"
  },
  "bufferViews": [
    {
      "buffer": 0,
      "byteLength": 9437184,
      "name": "floatBufferViews",
      "target": 34963
    },
    {
      "buffer": 0,
      "byteLength": 3329360,
      "byteOffset": 9437184,
      "byteStride": 8,
      "name": "floatBufferViews",
      "target": 34962
    },
    {
      "buffer": 0,
      "byteLength": 9988080,
      "byteOffset": 12766544,
      "byteStride": 12,
      "name": "floatBufferViews",
      "target": 34962
    },
    {
      "buffer": 0,
      "byteLength": 6658720,
      "byteOffset": 22754624,
      "byteStride": 16,
      "name": "floatBufferViews",
      "target": 34962
    }
  ],
  "buffers": [
    {
      "byteLength": 29413344,
      "uri": "scene.bin"
    }
  ],
  "images": [
    {
      "uri": "textures/Scene_-_Root_baseColor.png"
    },
    {
      "uri": "textures/Scene_-_Root_metallicRoughness.png"
    },
    {
      "uri": "textures/Scene_-_Root_normal.png"
    }
  ],
  "materials": [
    {
      "doubleSided": true,
      "name": "Scene_-_Root",
      "normalTexture": {
        "index": 2
      },
      "occlusionTexture": {
        "index": 1
      },
      "pbrMetallicRoughness": {
        "baseColorTexture": {
          "index": 0
        },
        "metallicFactor": 0.0,
        "metallicRoughnessTexture": {
          "index": 1
        }
      }
    }
  ],
  "meshes": [
    {
      "name": "Cube__0",
      "primitives": [
        {
          "attributes": {
            "NORMAL": 1,
            "POSITION": 0,
            "TANGENT": 2,
            "TEXCOORD_0": 3
          },
          "indices": 4,
          "material": 0,
          "mode": 4
        }
      ]
    },
    {
      "name": "Cube__0",
      "primitives": [
        {
          "attributes": {
            "NORMAL": 6,
            "POSITION": 5,
            "TANGENT": 7,
            "TEXCOORD_0": 8
          },
          "indices": 9,
          "material": 0,
          "mode": 4
        }
      ]
    },
    {
      "name": "Cube__0",
      "primitives": [
        {
          "attributes": {
            "NORMAL": 11,
            "POSITION": 10,
            "TANGENT": 12,
            "TEXCOORD_0": 13
          },
          "indices": 14,
          "material": 0,
          "mode": 4
        }
      ]
    },
    {
      "name": "Cube__0",
      "primitives": [
        {
          "attributes": {
            "NORMAL": 16,
            "POSITION": 15,
            "TANGENT": 17,
            "TEXCOORD_0": 18
          },
          "indices": 19,
          "material": 0,
          "mode": 4
        }
      ]
    },
    {
      "name": "Cube__0",
      "primitives": [
        {
          "attributes": {
            "NORMAL": 21,
            "POSITION": 20,
            "TANGENT": 22,
            "TEXCOORD_0": 23
          },
          "indices": 24,
          "material": 0,
          "mode": 4
        }
      ]
    },
    {
      "name": "Cube__0",
      "primitives": [
        {
          "attributes": {
            "NORMAL": 26,
            "POSITION": 25,
            "TANGENT": 27,
            "TEXCOORD_0": 28
          },
          "indices": 29,
          "material": 0,
          "mode": 4
        }
      ]
    },
    {
      "name": "Cube__0",
      "primitives": [
        {
          "attributes": {
            "NORMAL": 31,
            "POSITION": 30,
            "TANGENT": 32,
            "TEXCOORD_0": 33
          },
          "indices": 34,
          "material": 0,
          "mode": 4
        }
      ]
    }
  ],
  "nodes": [
    {
      "children": [
        1
      ],
      "matrix": [
        1.0,
        0.0,
        0.0,
        0.0,
        0.0,
        2.220446049250313e-16,
        -1.0,
        0.0,
        0.0,
        1.0,
        2.220446049250313e-16,
        0.0,
        0.0,
        0.0,
        0.0,
        1.0
      ],
      "name": "Sketchfab_model"
    },
    {
      "children": [
        2
      ],
      "matrix": [
        1.0,
        0.0,
        0.0,
        0.0,
        0.0,
        0.0,
        1.0,
        0.0,
        0.0,
        -1.0,
        0.0,
        0.0,
        0.0,
        0.0,
        0.0,
        1.0
      ],
      "name": "61bc3f1347b148e98daba45fbfc76d14.fbx"
    },
    {
      "children": [
        3
      ],
      "name": "RootNode"
    },
    {
      "children": [
        4,
        5,
        6,
        7,
        8,
        9,
        10
      ],
      "matrix": [
        50.0,
        0.0,
        0.0,
        0.0,
        0.0,
        -8.14603396959157e-06,
        -49.99999999999934,
        0.0,
        0.0,
        49.99999999999934,
        -8.14603396959157e-06,
        0.0,
        0.0,
        0.0,
        0.0,
        1.0
      ],
      "name": "Cube"
    },
    {
      "mesh": 0,
      "name": "Cube__0"
    },
    {
      "mesh": 1,
      "name": "Cube__0"
    },
    {
      "mesh": 2,
      "name": "Cube__0"
    },
    {
      "mesh": 3,
      "name": "Cube__0"
    },
    {
      "mesh": 4,
      "name": "Cube__0"
    },
    {
      "mesh": 5,
      "name": "Cube__0"
    },
    {
      "mesh": 6,
      "name": "Cube__0"
    }
  ],
  "samplers": [
    {
      "magFilter": 9729,
      "minFilter": 9987,
      "wrapS": 10497,
      "wrapT": 10497
    }
  ],
  "scene": 0,
  "scenes": [
    {
      "name": "Sketchfab_Scene",
      "nodes": [
        0
      ]
    }
  ],
  "textures": [
    {
      "sampler": 0,
      "source": 0
    },
    {
      "sampler": 0,
      "source": 1
    },
    {
      "sampler": 0,
      "source": 2
    }
  ]
}
